HIERARCHY
ROOT Hips
{
	OFFSET -0.001795 -0.223333 0.028219
	CHANNELS 6 Xposition Yposition Zposition Zrotation Yrotation Xrotation 
	JOINT LeftUpLeg
	{
		OFFSET 0.069520 -0.091406 -0.006815
		CHANNELS 3 Zrotation Yrotation Xrotation
		JOINT LeftLeg
		{
			OFFSET 0.034277 -0.375199 -0.004496
			CHANNELS 3 Zrotation Yrotation Xrotation
			JOINT LeftFoot
			{
				OFFSET -0.013596 -0.397961 -0.043693
				CHANNELS 3 Zrotation Yrotation Xrotation
				JOINT LeftToe
				{
					OFFSET 0.026358 -0.055791 0.119288
					CHANNELS 3 Zrotation Yrotation Xrotation
					End Site
					{
						OFFSET 0.000000 0.000000 0.000000
					}
				}
			}
		}
	}
	JOINT RightUpLeg
	{
		OFFSET -0.067670 -0.090522 -0.004320
		CHANNELS 3 Zrotation Yrotation Xrotation
		JOINT RightLeg
		{
			OFFSET -0.038290 -0.382569 -0.008850
			CHANNELS 3 Zrotation Yrotation Xrotation
			JOINT RightFoot
			{
				OFFSET 0.015774 -0.398415 -0.042312
				CHANNELS 3 Zrotation Yrotation Xrotation
				JOINT RightToe
				{
					OFFSET -0.025372 -0.048144 0.123348
					CHANNELS 3 Zrotation Yrotation Xrotation
					End Site
					{
						OFFSET 0.000000 0.000000 0.000000
					}
				}
			}
		}
	}
	JOINT Spine
	{
		OFFSET -0.002533 0.108963 -0.026696
		CHANNELS 3 Zrotation Yrotation Xrotation
		JOINT Spine1
		{
			OFFSET 0.005487 0.135180 0.001092
			CHANNELS 3 Zrotation Yrotation Xrotation
			JOINT Spine2
			{
				OFFSET 0.001457 0.052922 0.025425
				CHANNELS 3 Zrotation Yrotation Xrotation
				JOINT Neck
				{
					OFFSET -0.002778 0.213870 -0.042857
					CHANNELS 3 Zrotation Yrotation Xrotation
					JOINT Head
					{
						OFFSET 0.005152 0.064970 0.051349
						CHANNELS 3 Zrotation Yrotation Xrotation
						End Site
						{
							OFFSET 0.000000 0.000000 0.000000
						}
					}
				}
				JOINT LeftShoulder
				{
					OFFSET 0.078845 0.121749 -0.034090
					CHANNELS 3 Zrotation Yrotation Xrotation
					JOINT LeftArm
					{
						OFFSET 0.090977 0.030469 -0.008868
						CHANNELS 3 Zrotation Yrotation Xrotation
						JOINT LeftForeArm
						{
							OFFSET 0.259612 -0.012772 -0.027456
							CHANNELS 3 Zrotation Yrotation Xrotation
							JOINT LeftHand
							{
								OFFSET 0.249234 0.008986 -0.001171
								CHANNELS 3 Zrotation Yrotation Xrotation
								End Site
								{
									OFFSET 0.000000 0.000000 0.000000
								}
							}
						}
					}
				}
				JOINT RightShoulder
				{
					OFFSET -0.081759 0.118833 -0.038615
					CHANNELS 3 Zrotation Yrotation Xrotation
					JOINT RightArm
					{
						OFFSET -0.096012 0.032551 -0.009143
						CHANNELS 3 Zrotation Yrotation Xrotation
						JOINT RightForeArm
						{
							OFFSET -0.253742 -0.013329 -0.021401
							CHANNELS 3 Zrotation Yrotation Xrotation
							JOINT RightHand
							{
								OFFSET -0.255298 0.007772 -0.005559
								CHANNELS 3 Zrotation Yrotation Xrotation
								End Site
								{
									OFFSET 0.000000 0.000000 0.000000
								}
							}
						}
					}
				}
			}
		}
	}
}
MOTION
Frames: 18
Frame Time: 0.050000
0.000000 0.964012 0.000000 -1.501096 4.716934 2.547361 3.121787 -0.030262 0.958295 -2.707908 0.299633 -3.559423 2.102398 8.186403 10.743296 0.000000 0.000000 0.000000 -0.071442 0.206960 -1.989085 1.156179 -0.128357 0.188843 0.392690 -3.390374 11.514814 0.000000 0.000000 0.000000 -0.986743 -0.115987 3.913213 3.725900 -0.178808 -24.716360 -0.922747 -2.007989 29.145458 2.019807 0.756669 -28.946365 0.000000 0.000000 0.000000 -24.373549 -0.254776 -1.623279 -52.587329 -8.264566 -5.157652 -11.934556 -24.419608 3.832174 0.000000 0.000000 0.000000 17.022096 3.573338 1.335708 58.488214 9.705834 -3.689860 5.339673 26.556482 2.522921 0.000000 0.000000 0.000000 
0.001850 0.963498 -0.000059 -1.692800 3.988896 3.225407 3.331701 -0.040921 0.912791 -2.709644 0.310624 -4.442068 2.780105 9.079950 10.241313 0.000000 0.000000 0.000000 -0.428498 0.301922 -2.940398 1.452717 -0.151953 0.529810 0.788087 -2.750446 11.631413 0.000000 0.000000 0.000000 -0.810377 -0.085015 2.861970 3.545943 -0.147181 -24.678344 -0.797164 -1.567525 29.498214 2.570928 0.410543 -28.437821 0.000000 0.000000 0.000000 -24.489777 -0.144609 -1.677391 -52.756389 -8.524700 -5.095710 -12.033960 -24.565391 3.890750 0.000000 0.000000 0.000000 16.395920 3.639696 1.382226 60.576064 9.266683 -3.968920 3.990880 27.388850 2.351183 0.000000 0.000000 0.000000 
0.003416 0.962907 -0.000383 -1.424878 3.760829 3.393734 3.180068 -0.066226 0.374171 -3.177649 0.336326 -3.528960 2.991331 9.434170 10.349474 0.000000 0.000000 0.000000 -0.549733 0.333898 -3.279511 1.070999 -0.097731 0.822321 0.877622 -2.559669 11.490034 0.000000 0.000000 0.000000 -0.740761 -0.074528 2.508819 3.252485 -0.082875 -24.616932 -0.997150 -1.610900 29.617145 2.032825 0.678493 -28.524874 0.000000 0.000000 0.000000 -24.185494 -0.349052 -1.453557 -52.218989 -8.765937 -4.979082 -12.876027 -24.692629 4.101176 0.000000 0.000000 0.000000 16.928433 4.069186 1.553546 59.924734 9.114706 -4.039906 4.141243 27.262149 2.343505 0.000000 0.000000 0.000000 
0.004705 0.963033 -0.000604 -1.555327 3.537798 3.502883 3.013240 -0.074654 0.139932 -2.873453 0.315037 -3.242728 3.171727 9.656112 10.128052 0.000000 0.000000 0.000000 -0.641281 0.347991 -3.428706 1.393437 -0.133973 0.893475 1.046979 -2.430528 11.990652 0.000000 0.000000 0.000000 -0.814999 -0.061436 2.223191 3.519951 -0.129441 -25.064506 -0.928128 -1.653051 30.109655 2.293782 0.463107 -28.089537 0.000000 0.000000 0.000000 -24.554548 0.102793 -1.691218 -51.987696 -8.816317 -4.992302 -13.566635 -25.149248 4.359853 0.000000 0.000000 0.000000 16.423992 4.323153 1.661654 59.912184 8.789536 -4.247024 4.738943 27.622336 2.511875 0.000000 0.000000 0.000000 
0.005709 0.963414 -0.000744 -1.565031 3.495178 3.322537 2.975854 -0.066133 0.236634 -2.931510 0.318868 -3.130145 3.002772 9.402778 10.231220 0.000000 0.000000 0.000000 -0.768105 0.318509 -3.126411 1.475380 -0.145636 0.820081 0.965029 -2.608938 12.023728 0.000000 0.000000 0.000000 -0.877640 -0.069654 2.517822 3.874313 -0.236042 -24.606704 -0.999457 -1.306561 29.528088 2.249624 0.496768 -27.390154 0.000000 0.000000 0.000000 -24.379822 -0.090682 -1.689369 -51.825212 -9.079466 -4.779843 -14.448696 -25.482947 4.597581 0.000000 0.000000 0.000000 16.687628 4.233879 1.666854 59.457358 8.675802 -4.226941 5.589874 27.838144 2.734783 0.000000 0.000000 0.000000 
0.006532 0.963630 -0.000789 -1.617441 3.357251 3.270956 2.928461 -0.066810 0.184952 -2.920715 0.317783 -2.946836 3.215303 9.607312 9.701986 0.000000 0.000000 0.000000 -0.851824 0.314852 -3.090489 1.451018 -0.142898 0.792910 1.080720 -2.488950 12.268301 0.000000 0.000000 0.000000 -1.036801 -0.058259 2.362160 3.959785 -0.255527 -24.667972 -0.871418 -1.463007 29.855579 2.312231 0.414258 -27.398037 0.000000 0.000000 0.000000 -24.199871 0.004256 -1.631790 -51.829898 -9.359609 -4.723919 -14.770993 -26.060629 4.810537 0.000000 0.000000 0.000000 16.523479 4.607455 1.811635 59.353675 8.743619 -4.222519 5.460800 27.775849 2.679232 0.000000 0.000000 0.000000 
0.007096 0.963639 -0.000798 -1.644379 3.096097 3.228200 2.954765 -0.061162 0.258525 -2.940096 0.322589 -3.142810 3.323950 9.861612 10.089733 0.000000 0.000000 0.000000 -0.875368 0.308490 -3.023211 1.435216 -0.139722 0.807673 1.103160 -2.510239 12.341199 0.000000 0.000000 0.000000 -1.039665 -0.061760 2.468950 4.050818 -0.288082 -24.535983 -0.899348 -1.346962 29.662356 2.327258 0.390407 -27.270720 0.000000 0.000000 0.000000 -24.248760 -0.003281 -1.617072 -51.694471 -9.312682 -4.723262 -15.221855 -26.276512 4.963749 0.000000 0.000000 0.000000 16.510035 4.721308 1.850773 59.292525 8.555584 -4.294779 5.850715 28.001779 2.789358 0.000000 0.000000 0.000000 
0.007557 0.963468 -0.000791 -1.670459 2.834003 3.306845 2.963951 -0.070431 0.097884 -2.909067 0.321133 -3.023413 3.464384 9.994435 9.766250 0.000000 0.000000 0.000000 -0.819440 0.320952 -3.152724 1.394903 -0.129255 0.990257 1.061902 -2.496882 11.962998 0.000000 0.000000 0.000000 -1.051523 -0.058185 2.383485 4.036203 -0.287562 -24.561742 -0.907490 -1.302933 29.797022 2.317545 0.369975 -27.212624 0.000000 0.000000 0.000000 -24.137461 0.052088 -1.594239 -51.536183 -9.188449 -4.785966 -15.554634 -26.622106 5.123709 0.000000 0.000000 0.000000 16.406070 4.622995 1.773820 59.386785 8.619115 -4.279284 5.858268 27.932107 2.780200 0.000000 0.000000 0.000000 
0.007903 0.963440 -0.000826 -1.650738 2.588712 3.340697 2.965920 -0.071675 0.059219 -2.942951 0.325107 -2.997021 3.573879 10.176228 9.853268 0.000000 0.000000 0.000000 -0.871923 0.339867 -3.356494 1.448834 -0.130980 1.143986 0.865509 -2.894601 11.902432 0.000000 0.000000 0.000000 -1.060422 -0.056676 2.354198 4.020806 -0.293061 -24.457686 -0.885382 -1.231003 29.661623 2.214185 0.415531 -27.179104 0.000000 0.000000 0.000000 -24.208450 0.031191 -1.562497 -51.324201 -9.028973 -4.831785 -15.559042 -26.524176 5.102575 0.000000 0.000000 0.000000 16.464439 4.561931 1.714975 59.295963 8.360894 -4.391565 5.729142 28.046238 2.756203 0.000000 0.000000 0.000000 
0.008197 0.963447 -0.000940 -1.673239 2.478843 3.382506 2.942622 -0.079204 -0.076238 -2.893903 0.321302 -2.893466 3.613520 10.189794 9.662613 0.000000 0.000000 0.000000 -0.871369 0.355516 -3.523630 1.496136 -0.134082 1.231241 0.705955 -3.137657 11.659187 0.000000 0.000000 0.000000 -1.013665 -0.058032 2.344192 4.011234 -0.298138 -24.341101 -0.966509 -1.186964 29.601665 2.044202 0.519028 -27.293330 0.000000 0.000000 0.000000 -24.256072 0.010652 -1.548649 -51.190671 -9.001684 -4.825134 -15.665626 -26.555020 5.133140 0.000000 0.000000 0.000000 16.540489 4.450889 1.646518 59.335982 8.254642 -4.434854 5.637658 28.172588 2.749297 0.000000 0.000000 0.000000 
0.008428 0.963561 -0.001127 -1.653809 2.623724 3.437308 2.989943 -0.090995 -0.226631 -2.903968 0.320267 -2.787911 3.545368 10.078658 9.620224 0.000000 0.000000 0.000000 -0.921413 0.377286 -3.761077 1.617212 -0.144745 1.427997 0.649147 -3.191682 11.553050 0.000000 0.000000 0.000000 -0.931391 -0.059249 2.288943 3.871890 -0.262100 -24.359214 -1.033557 -1.378626 29.683228 1.947634 0.569112 -27.478426 0.000000 0.000000 0.000000 -24.201869 -0.009580 -1.496443 -51.169821 -8.997338 -4.840337 -15.595574 -26.460963 5.101276 0.000000 0.000000 0.000000 16.364018 4.259680 1.528865 59.551408 8.154751 -4.498973 5.538602 28.096293 2.717248 0.000000 0.000000 0.000000 
0.008620 0.963811 -0.001272 -1.617480 2.841858 3.341864 3.002220 -0.089581 -0.190222 -2.949600 0.322195 -2.752137 3.403702 9.841522 9.538704 0.000000 0.000000 0.000000 -0.859469 0.380823 -3.798346 1.616756 -0.144802 1.464095 0.609262 -3.222640 11.504887 0.000000 0.000000 0.000000 -0.906985 -0.066856 2.476460 3.858393 -0.251361 -24.434322 -1.148957 -1.458125 29.747007 1.815699 0.644917 -27.395799 0.000000 0.000000 0.000000 -24.329298 -0.128993 -1.450406 -50.965198 -9.109487 -4.788945 -15.599402 -26.300194 5.063415 0.000000 0.000000 0.000000 16.450261 4.139427 1.481677 59.362324 8.053267 -4.554768 5.449248 28.074450 2.697079 0.000000 0.000000 0.000000 
0.008771 0.964040 -0.001308 -1.578279 3.006637 3.332710 2.924910 -0.090535 -0.223897 -2.841284 0.312704 -2.734613 3.295780 9.680845 9.558758 0.000000 0.000000 0.000000 -0.735835 0.389182 -3.878037 1.576431 -0.137498 1.591777 0.481637 -3.417527 11.407682 0.000000 0.000000 0.000000 -0.890033 -0.071848 2.599970 3.803870 -0.231573 -24.526188 -1.205424 -1.576207 29.836177 1.746284 0.682876 -27.445567 0.000000 0.000000 0.000000 -24.324732 -0.181554 -1.411459 -50.936903 -9.241279 -4.743139 -15.494208 -25.992791 4.972288 0.000000 0.000000 0.000000 16.441785 3.990876 1.406730 59.242680 7.994509 -4.594147 5.398201 27.912034 2.667156 0.000000 0.000000 0.000000 
0.008885 0.964217 -0.001222 -1.523242 3.064370 3.297754 2.806702 -0.082588 -0.145837 -2.720955 0.304295 -2.853170 3.127558 9.402105 9.541199 0.000000 0.000000 0.000000 -0.662132 0.382213 -3.798754 1.524331 -0.132998 1.516927 0.422594 -3.485315 11.284610 0.000000 0.000000 0.000000 -0.908431 -0.073859 2.679118 3.782810 -0.216650 -24.689501 -1.219479 -1.645632 30.105195 1.559782 0.774904 -27.408669 0.000000 0.000000 0.000000 -24.410830 -0.069182 -1.462251 -50.808150 -9.429424 -4.696770 -15.530404 -25.770367 4.941501 0.000000 0.000000 0.000000 16.442715 3.966036 1.395158 58.979414 8.065345 -4.586567 5.422951 27.815465 2.660540 0.000000 0.000000 0.000000 
0.008990 0.964276 -0.001044 -1.491276 3.156175 3.255287 2.707137 -0.072135 -0.021432 -2.646546 0.299407 -2.978036 3.054657 9.311042 9.630009 0.000000 0.000000 0.000000 -0.583294 0.367578 -3.639053 1.414339 -0.121689 1.432853 0.363002 -3.590092 11.284645 0.000000 0.000000 0.000000 -0.907132 -0.075347 2.717803 3.771573 -0.210558 -24.721550 -1.259832 -1.637464 30.244557 1.607978 0.752907 -27.362768 0.000000 0.000000 0.000000 -24.528061 -0.181513 -1.420743 -50.764476 -9.625849 -4.623653 -15.326768 -25.354949 4.802418 0.000000 0.000000 0.000000 16.504192 3.850613 1.354510 58.859572 8.139710 -4.565257 5.461182 27.598960 2.648701 0.000000 0.000000 0.000000 
0.009082 0.964361 -0.000801 -1.466817 2.954141 3.249777 2.582464 -0.061996 0.065414 -2.499793 0.291407 -3.134976 3.033948 9.280506 9.707719 0.000000 0.000000 0.000000 -0.646501 0.362235 -3.588458 1.365736 -0.116070 1.384945 0.456868 -3.365956 11.082190 0.000000 0.000000 0.000000 -0.828087 -0.080906 2.784733 3.703281 -0.197777 -24.698174 -1.255664 -1.507633 30.305079 1.620461 0.770400 -27.708874 0.000000 0.000000 0.000000 -24.495142 -0.213904 -1.391586 -50.881332 -9.715990 -4.601961 -15.303025 -25.118958 4.750800 0.000000 0.000000 0.000000 16.502122 3.894919 1.377742 58.847896 8.358255 -4.465994 5.602994 27.393361 2.656118 0.000000 0.000000 0.000000 
0.009150 0.964491 -0.000490 -1.464887 2.728981 3.252956 2.511933 -0.054489 0.132783 -2.447415 0.290093 -3.243824 3.046054 9.293954 9.753362 0.000000 0.000000 0.000000 -0.513780 0.363983 -3.599389 1.174262 -0.090071 1.439979 0.401071 -3.479321 10.998375 0.000000 0.000000 0.000000 -0.778104 -0.086564 2.886178 3.741027 -0.213579 -24.627927 -1.307185 -1.377982 30.297149 1.642359 0.765395 -27.829915 0.000000 0.000000 0.000000 -24.559413 -0.237369 -1.376823 -50.942878 -9.727541 -4.598113 -15.121150 -24.980092 4.680121 0.000000 0.000000 0.000000 16.615248 3.993648 1.419639 58.707041 8.534481 -4.370549 5.647985 27.360436 2.656584 0.000000 0.000000 0.000000 
0.009192 0.964638 -0.000095 -1.414426 2.627369 3.227977 2.471366 -0.040597 0.314064 -2.528558 0.299229 -3.483510 2.957929 9.179703 9.914583 0.000000 0.000000 0.000000 -0.520085 0.353565 -3.492625 1.063279 -0.074299 1.501974 0.501765 -3.257432 10.888974 0.000000 0.000000 0.000000 -0.851379 -0.086957 2.989179 3.876028 -0.247087 -24.621863 -1.380369 -1.260790 30.320278 1.670509 0.793618 -28.310625 0.000000 0.000000 0.000000 -24.486342 -0.114449 -1.460088 -51.130314 -9.667580 -4.632250 -15.319160 -24.785173 4.687351 0.000000 0.000000 0.000000 16.775010 3.984701 1.424312 58.637678 8.704312 -4.289143 5.798623 27.331975 2.690377 0.000000 0.000000 0.000000 
